<svg xmlns="http://www.w3.org/2000/svg" viewBox="0 0 250 250"><defs><style>.cls-1{fill:#fff;}</style></defs><g id="TESTI"><path class="cls-1" d="M233.06,74.43A18.45,18.45,0,0,0,227.21,61,18.93,18.93,0,0,0,200,62.38L142.47,29.7a18.31,18.31,0,0,0,1.11-6.08,18.6,18.6,0,0,0-9.47-16.14,19.08,19.08,0,0,0-18.89,0,18.61,18.61,0,0,0-9.41,16.18,18.46,18.46,0,0,0,1.32,6.08L49.59,62.7a18.95,18.95,0,0,0-27.25-1.32,18.52,18.52,0,0,0-1.42,25.38,19,19,0,0,0,11,6.41L32.06,157a18.81,18.81,0,0,0-13.9,11.09,18.45,18.45,0,0,0,1.71,17.57,18.84,18.84,0,0,0,29.84,1.74L107.53,220a18.46,18.46,0,0,0,2.34,17.06,19,19,0,0,0,30.91-.06A18.48,18.48,0,0,0,143.05,220L200.41,187a18.94,18.94,0,0,0,27.25,1.31A18.51,18.51,0,0,0,229.08,163a19,19,0,0,0-11-6.41l-.13-63.79a19,19,0,0,0,10.87-6.51,18.57,18.57,0,0,0,4.24-11.84Zm-33,88.5-31.69-17.65-.09-41,31.62-17.79a19,19,0,0,0,10.81,6.27l.13,63.79a19,19,0,0,0-10.78,6.35ZM81.42,145.46,49.8,163.25A19,19,0,0,0,39,157l-.13-63.83a19,19,0,0,0,10.89-6.34l31.69,17.65Zm7-37,33,18.45.08,37.28-33-18.76Zm36.45-24.88,33,18.72L124.9,120.87l-33-18.45Zm3.61,43.32,32.95-18.63.08,37-33,18.9ZM214.18,62.8a11.88,11.88,0,0,1,8.39,3.42,11.59,11.59,0,0,1,0,16.56,12,12,0,0,1-16.77,0,11.61,11.61,0,0,1,0-16.56,12,12,0,0,1,8.36-3.43Zm-17.57,5.6a17.7,17.7,0,0,0-1.15,6.11,18.77,18.77,0,0,0,1.1,6L165,98.31,128.33,77.54l-.08-35.61a18.74,18.74,0,0,0,10.54-6.21ZM124.67,12a11.91,11.91,0,0,1,8.39,3.41,11.61,11.61,0,0,1,0,16.56,11.94,11.94,0,0,1-16.76,0,11.6,11.6,0,0,1,0-16.55A12,12,0,0,1,124.67,12Zm-14,23.83a18.73,18.73,0,0,0,10.56,6.16l.08,35.61L84.83,98.48,53.14,80.79a17.18,17.18,0,0,0,0-12.09ZM23.59,74.88a11.62,11.62,0,0,1,3.46-8.29,11.94,11.94,0,0,1,16.77,0,11.61,11.61,0,0,1,0,16.56,12,12,0,0,1-16.75,0,11.65,11.65,0,0,1-3.48-8.26ZM35.64,186.94a12,12,0,0,1-8.32-3.52,11.61,11.61,0,0,1,.15-16.53A12,12,0,0,1,44.2,167a11.6,11.6,0,0,1-.08,16.59,11.94,11.94,0,0,1-8.48,3.38Zm17.75-5.6a17.12,17.12,0,0,0,0-12.09L85,151.43l36.58,20.77.08,35.61A18.77,18.77,0,0,0,111.1,214Zm71.76,56.45a12,12,0,0,1-8.39-3.41,11.6,11.6,0,0,1,0-16.56,12,12,0,0,1,16.76,0,11.6,11.6,0,0,1,0,16.56A12,12,0,0,1,125.15,237.79Zm14-23.83a18.72,18.72,0,0,0-10.57-6.16l-.07-35.62L165,151.26,196.71,169a18.46,18.46,0,0,0-1.07,6,17.82,17.82,0,0,0,1.17,6.11Zm86.92-39.1h0a11.62,11.62,0,0,1-3.46,8.29,12,12,0,0,1-16.77,0,11.63,11.63,0,0,1,0-16.57,12.15,12.15,0,0,1,16.85,0,11.63,11.63,0,0,1,3.52,8.31Z"/></g></svg>