<svg xmlns="http://www.w3.org/2000/svg" xmlns:xlink="http://www.w3.org/1999/xlink" viewBox="0 0 1500 816.8"><defs><style>.cls-1{isolation:isolate;}.cls-2{fill:url(#DOPOT);}.cls-3{fill:#ffe425;opacity:0.1;}.cls-4{opacity:0.53;}.cls-10,.cls-11,.cls-12,.cls-13,.cls-14,.cls-15,.cls-5,.cls-6,.cls-8,.cls-9{mix-blend-mode:screen;opacity:0.5;}.cls-5{fill:url(#Áåçûìÿííûé_ãðàäèåíò_366);}.cls-6{fill:url(#Áåçûìÿííûé_ãðàäèåíò_366-2);}.cls-7{fill:#fff;fill-rule:evenodd;}.cls-8{fill:url(#Áåçûìÿííûé_ãðàäèåíò_366-3);}.cls-9{fill:url(#Áåçûìÿííûé_ãðàäèåíò_366-4);}.cls-10{fill:url(#Áåçûìÿííûé_ãðàäèåíò_366-5);}.cls-11{fill:url(#Áåçûìÿííûé_ãðàäèåíò_366-6);}.cls-12{fill:url(#Áåçûìÿííûé_ãðàäèåíò_366-7);}.cls-13{fill:url(#Áåçûìÿííûé_ãðàäèåíò_366-8);}.cls-14{fill:url(#Áåçûìÿííûé_ãðàäèåíò_366-9);}.cls-15{fill:url(#Áåçûìÿííûé_ãðàäèåíò_366-10);}</style><linearGradient id="DOPOT" x1="-12323.34" y1="-371.77" x2="-8808.02" y2="2200.63" gradientTransform="matrix(-1, 0, 0, 1, -10773, 0)" gradientUnits="userSpaceOnUse"><stop offset="0" stop-color="#ffe425"/><stop offset="0.53" stop-color="#df1f68"/><stop offset="1" stop-color="#ff43a0"/></linearGradient><radialGradient id="Áåçûìÿííûé_ãðàäèåíò_366" cx="4631.26" cy="6214.02" r="20.37" gradientTransform="translate(-4532.75 -5505.38)" gradientUnits="userSpaceOnUse"><stop offset="0" stop-color="#2f54a1"/><stop offset="0.24" stop-color="#20386c"/><stop offset="0.49" stop-color="#12203e"/><stop offset="0.7" stop-color="#080f1c"/><stop offset="0.88" stop-color="#020407"/><stop offset="1"/></radialGradient><radialGradient id="Áåçûìÿííûé_ãðàäèåíò_366-2" cx="4631.26" cy="6214.02" r="7.24" xlink:href="#Áåçûìÿííûé_ãðàäèåíò_366"/><radialGradient id="Áåçûìÿííûé_ãðàäèåíò_366-3" cx="4637.66" cy="6308.35" r="20.37" gradientTransform="translate(-4458.04 -5551.14)" xlink:href="#Áåçûìÿííûé_ãðàäèåíò_366"/><radialGradient id="Áåçûìÿííûé_ãðàäèåíò_366-4" cx="4637.66" cy="6308.35" r="7.24" gradientTransform="translate(-4458.04 -5551.14)" xlink:href="#Áåçûìÿííûé_ãðàäèåíò_366"/><radialGradient id="Áåçûìÿííûé_ãðàäèåíò_366-5" cx="4816.02" cy="6466.08" r="20.37" gradientTransform="translate(-4405.09 -5765.36)" xlink:href="#Áåçûìÿííûé_ãðàäèåíò_366"/><radialGradient id="Áåçûìÿííûé_ãðàäèåíò_366-6" cx="4816.02" cy="6466.08" r="7.24" gradientTransform="translate(-4405.1 -5765.36)" xlink:href="#Áåçûìÿííûé_ãðàäèåíò_366"/><radialGradient id="Áåçûìÿííûé_ãðàäèåíò_366-7" cx="5459.47" cy="6879.76" r="20.37" gradientTransform="translate(-4341.68 -6471.45)" xlink:href="#Áåçûìÿííûé_ãðàäèåíò_366"/><radialGradient id="Áåçûìÿííûé_ãðàäèåíò_366-8" cx="5459.47" cy="6879.76" r="7.24" gradientTransform="translate(-4341.68 -6471.45)" xlink:href="#Áåçûìÿííûé_ãðàäèåíò_366"/><radialGradient id="Áåçûìÿííûé_ãðàäèåíò_366-9" cx="5401.05" cy="6988.68" r="9.18" gradientTransform="translate(-4227.14 -6470.24)" xlink:href="#Áåçûìÿííûé_ãðàäèåíò_366"/><radialGradient id="Áåçûìÿííûé_ãðàäèåíò_366-10" cx="5401.05" cy="6988.68" r="3.26" gradientTransform="translate(-4227.14 -6470.24)" xlink:href="#Áåçûìÿííûé_ãðàäèåíò_366"/></defs><g class="cls-1"><g id="oggetti"><path class="cls-2" d="M1498,0H0V791.37s680.36,168,1498.8-362.71Z"/><path class="cls-3" d="M0,230.34s556.33,12.28,710.09,536.72c0,0,132.46-27.15,290.26-86.17,0,0-623.74-604.45-1000.35-554.48Z"/><path class="cls-3" d="M312.87,0H141.35S416,190.44,706.06,356.55c465,266.23,792.74,39.93,792.74,39.93V224S1248,612.21,696.54,261.42C305.7,12.82,312.87,0,312.87,0Z"/><g class="cls-4"><circle class="cls-5" cx="98.5" cy="708.65" r="20.37" transform="translate(-539.68 385.21) rotate(-55.21)"/><circle class="cls-6" cx="98.5" cy="708.65" r="7.24" transform="translate(-539.68 385.21) rotate(-55.21)"/><path class="cls-7" d="M100,706.56a2.39,2.39,0,1,1-2.72,3.92,2.39,2.39,0,1,1,2.72-3.92Z"/></g><g class="cls-4"><circle class="cls-8" cx="179.62" cy="757.21" r="20.37" transform="translate(-544.72 472.69) rotate(-55.21)"/><circle class="cls-9" cx="179.62" cy="757.21" r="7.24" transform="translate(-544.72 472.69) rotate(-55.21)"/><path class="cls-7" d="M181.07,755.12a2.39,2.39,0,1,1-3.32.6A2.39,2.39,0,0,1,181.07,755.12Z"/></g><g class="cls-4"><circle class="cls-10" cx="410.93" cy="700.72" r="20.37" transform="translate(-399 638.39) rotate(-55.21)"/><circle class="cls-11" cx="410.93" cy="700.72" r="7.24" transform="translate(-399 638.39) rotate(-55.21)"/><path class="cls-7" d="M412.38,698.63a2.39,2.39,0,1,1-3.33.6A2.39,2.39,0,0,1,412.38,698.63Z"/></g><g class="cls-4"><circle class="cls-12" cx="1117.79" cy="408.32" r="20.37" transform="translate(144.69 1093.34) rotate(-55.21)"/><circle class="cls-13" cx="1117.79" cy="408.32" r="7.24" transform="translate(144.69 1093.34) rotate(-55.21)"/><path class="cls-7" d="M1119.24,406.23a2.39,2.39,0,1,1-3.32.59A2.38,2.38,0,0,1,1119.24,406.23Z"/></g><g class="cls-4"><circle class="cls-14" cx="1173.9" cy="518.44" r="9.18" transform="translate(78.35 1186.71) rotate(-55.21)"/><circle class="cls-15" cx="1173.9" cy="518.44" r="3.26" transform="matrix(0.57, -0.82, 0.82, 0.57, 78.35, 1186.71)"/><path class="cls-7" d="M1174.56,517.5a1.07,1.07,0,1,1-1.23,1.76,1.06,1.06,0,0,1-.27-1.49A1.08,1.08,0,0,1,1174.56,517.5Z"/></g></g></g></svg>