<svg xmlns="http://www.w3.org/2000/svg" viewBox="0 0 250 250"><defs><style>.cls-1{fill:#fff;}</style></defs><g id="TESTI"><path class="cls-1" d="M108,95c-6.41,0-11.25-3.43-11.26-8l-.06-29.48a3.75,3.75,0,0,1,7.49,0l.06,29a6.78,6.78,0,0,0,3.75.93,7.55,7.55,0,0,0,3.41-.72l.34-.23-.07-29a3.75,3.75,0,0,1,7.5,0L119.2,87a7.25,7.25,0,0,1-4.15,6.3A14.62,14.62,0,0,1,108,95Z"/><path class="cls-1" d="M123,95c-6.4,0-11.24-3.39-11.25-7.92l-.07-29.52a3.75,3.75,0,0,1,7.5,0l.06,29a8.06,8.06,0,0,0,7.15.17l.34-.19-.06-29a3.75,3.75,0,0,1,7.49,0L134.18,87A7.24,7.24,0,0,1,130,93.3,15,15,0,0,1,123,95Z"/><path class="cls-1" d="M138,95c-6.41,0-11.25-3.42-11.26-7.95l-.06-29.48a3.75,3.75,0,0,1,7.49,0l.06,29a6.68,6.68,0,0,0,3.75.93,7.45,7.45,0,0,0,3.41-.72l.33-.22-.06-29a3.75,3.75,0,1,1,7.49,0L149.17,87a7.49,7.49,0,0,1-1.24,3.69A7.37,7.37,0,0,1,145,93.26,14.53,14.53,0,0,1,138,95Z"/><path class="cls-1" d="M100.45,76.31a22.46,22.46,0,0,1-13.8-4.57,12.88,12.88,0,0,1-5-10.37V59.61A29.67,29.67,0,0,1,86.1,40.53l8.11-10.84h0a14.26,14.26,0,0,1,6.14-4.77l0-12.29h7.49l0,14.53A3.7,3.7,0,0,1,107.2,30a3.78,3.78,0,0,1-2.58,1.47,6.75,6.75,0,0,0-4.49,2.67l-8,10.73a22.19,22.19,0,0,0-3,14.35v2.13a5.52,5.52,0,0,0,2.22,4.57,13,13,0,0,0,5.28,2.46l0-10.79h7.49l0,15a3.74,3.74,0,0,1-3.73,3.75Z"/><path class="cls-1" d="M147.75,87.67a15.19,15.19,0,0,1-3.23-.32,3.74,3.74,0,0,1-2.85-3.63l-.06-26.22,7.5,0,0,22.48h.23q6.18-1.26,7.05-11.67c.06-1.25.06-2.5,0-3.74l0-4.8a13.79,13.79,0,0,0-.45-3.56l-5.22-21.53a4.52,4.52,0,0,0-3-3.17,3.76,3.76,0,0,1-2.48-3.56,4.21,4.21,0,0,1,0-.71l0-14.68,7.49,0,0,13.11A12,12,0,0,1,158,32.81l5.4,21.53a21.29,21.29,0,0,1,.68,5.39V69c-1.2,13.9-8.69,17.48-13,18.35a16.18,16.18,0,0,1-3.33.3Z"/><path class="cls-1" d="M149.05,31.26l-7.49,0a3.75,3.75,0,0,1,0-7.5H149a3.75,3.75,0,1,1,0,7.49Z"/><path class="cls-1" d="M104.1,31.36a3.75,3.75,0,1,1,0-7.5h7.49a3.75,3.75,0,1,1,0,7.49Z"/><path class="cls-1" d="M206.74,244.66,43.56,245a25.18,25.18,0,0,1-25.22-25.12l-.19-92a25.16,25.16,0,0,1,25.11-25.22l31-.07.09,41.2h7.49l-.09-41.21,82.41-.17.09,41.21,7.49,0-.09-41.21,34.77-.07a25.18,25.18,0,0,1,25.22,25.12l.19,92a25.16,25.16,0,0,1-25.11,25.23ZM43.28,110.15a17.7,17.7,0,0,0-17.64,17.72l.19,92a17.72,17.72,0,0,0,17.72,17.64l163.17-.35a17.7,17.7,0,0,0,17.64-17.71l-.19-92a17.74,17.74,0,0,0-17.72-17.65l-27.27.06.09,41.21-22.48,0-.08-41.2-67.43.14.09,41.21-22.48,0-.08-41.2Z"/><path class="cls-1" d="M89.37,151.26l-22.48,0L66.74,81A15.89,15.89,0,0,1,82.55,65.11h7.83l1.05.86a15.27,15.27,0,0,0,9,2.86h3.75l0,18.73L90,87.57a.69.69,0,0,0-.72.72Zm-15-7.46,7.49,0L81.74,88.3a8.21,8.21,0,0,1,8.19-8.22h6.78V76a22.47,22.47,0,0,1-8.92-3.43H82.57A8.35,8.35,0,0,0,74.24,81Z"/><path class="cls-1" d="M179.27,151.07l-22.48,0-.13-63a.68.68,0,0,0-.71-.71l-5.81,0L149.38,80q6.17-1.26,7.05-11.67l.18-3.33,6.52,0a15.89,15.89,0,0,1,16,15.81Zm-15-7.46,7.49,0-.13-62.82a8.35,8.35,0,0,0-8.19-8.34,22.41,22.41,0,0,1-3.27,8.66,8.28,8.28,0,0,1,4,7Z"/><path class="cls-1" d="M164,20l-74.92.16a3.74,3.74,0,0,1-3.75-3.74l0-11.24H92.8l0,7.49,67.43-.14,0-7.49,7.49,0,0,11.24A3.71,3.71,0,0,1,164,20Z"/><path class="cls-1" d="M21.93,143.91l206-.44,0,7.49-206,.44Z"/><path class="cls-1" d="M209.37,214.68l-33.71.07a3.75,3.75,0,1,1,0-7.49l33.71-.07a3.75,3.75,0,1,1,0,7.49Z"/><path class="cls-1" d="M201.9,225.94l-18.73,0a3.75,3.75,0,0,1,0-7.5l18.73,0a3.75,3.75,0,0,1,0,7.5Z"/></g></svg>