<svg xmlns="http://www.w3.org/2000/svg" viewBox="0 0 50 50"><defs><style>.cls-1{fill:#fff;}</style></defs><g id="TESTI"><path class="cls-1" d="M5.08,39.79a1.09,1.09,0,0,0,.76-.32L8.31,37a1.08,1.08,0,0,0-1.53-1.53L4.31,37.94a1.09,1.09,0,0,0,.77,1.85Zm4.88.62a1.09,1.09,0,0,0-1.53,0L2.67,46.18a1.07,1.07,0,0,0,0,1.53,1.09,1.09,0,0,0,1.52,0L10,41.94a1.09,1.09,0,0,0,0-1.53Zm27.13-33a4.62,4.62,0,1,0,3.27,1.35,4.62,4.62,0,0,0-3.27-1.35Zm1.74,6.36a2.46,2.46,0,1,1,0-3.48,2.44,2.44,0,0,1,0,3.48ZM47.61,3.58l0-.52a1.09,1.09,0,0,0-1-1l-.52,0c-.1,0-.61,0-1.42,0-3.88,0-13.58.68-19.91,7-.78.78-1.52,1.58-2.21,2.4a6.59,6.59,0,0,0-2.89-.64,6.8,6.8,0,0,0-4.83,1.9L8.2,19.23a2.08,2.08,0,0,0-.4,2.13c0,.08,0,.17.07.26a2.7,2.7,0,0,0,1.59,2l5.87,2.58L9.54,32a1.08,1.08,0,0,0-.31.72,7.33,7.33,0,0,0,2.42,5.11,7.45,7.45,0,0,0,5,2.42h.07a1.09,1.09,0,0,0,.72-.32L23.36,34l2.73,6.22a2.85,2.85,0,0,0,.58.85,2.72,2.72,0,0,0,1.43.75,2.94,2.94,0,0,0,.51,0,2.81,2.81,0,0,0,1.95-.8l6.65-6.66a6.22,6.22,0,0,0,1.07-7.37c.81-.69,1.6-1.42,2.35-2.17,7.8-7.8,7-20.78,7-21.33ZM37,25.3a57.46,57.46,0,0,1-8.8,5.13,17.06,17.06,0,0,1-4.34.95h0a5.67,5.67,0,0,1-4.1-1.51,5.61,5.61,0,0,1-1.5-3.9,17.59,17.59,0,0,1,.93-4.53,58.1,58.1,0,0,1,5.09-8.8c.62-.72,1.28-1.43,2-2.12C32,4.76,41,4.14,44.63,4.14h.85c.08,2.27.08,12.78-6.37,19.23-.67.67-1.38,1.3-2.09,1.92ZM12,43.4,9.25,46.18A1.08,1.08,0,0,0,10,48a1.07,1.07,0,0,0,.76-.31l2.78-2.78A1.08,1.08,0,0,0,12,43.4Z"/></g></svg>