<svg xmlns="http://www.w3.org/2000/svg" viewBox="0 0 50 50">
	<defs>
		<style>
			.cls-1{fill:#ff43a0;}
		</style>
	</defs>
	<g id="TESTI">
		<path class="cls-1" d="M45.53,12.68v-.13a1.83,1.83,0,0,0-.28-.44L33.48.34A1.78,1.78,0,0,0,33,.06H5.87A1.47,1.47,0,0,0,4.4,1.53V48.47a1.47,1.47,0,0,0,1.47,1.47H44.13a1.47,1.47,0,0,0,1.47-1.47V13.07A1.78,1.78,0,0,0,45.53,12.68ZM37,22.6H17c-6.08,0-7.67-.82-7.67-1.83s2.68-1.83,7.34-1.83H37a1.84,1.84,0,0,1,0,3.66Zm0,9.25H17C10.9,31.85,9.31,31,9.31,30S12,28.2,16.65,28.2H37a1.84,1.84,0,0,1,0,3.65Zm0,9.51H17c-6.08,0-7.67-.82-7.67-1.83S12,37.7,16.65,37.7H37a1.84,1.84,0,0,1,0,3.66ZM33,10.68V2.12l9.91,10.43H34.74A1.82,1.82,0,0,1,33,10.68Z" />
	</g>
</svg>
