<svg xmlns="http://www.w3.org/2000/svg" viewBox="0 0 98.4 140"><defs><style>.cls-1{fill:#fff;}</style></defs><g id="oggetti"><path class="cls-1" d="M48.88,0H20.8A20.78,20.78,0,0,0,1.3,13.59h18a7.59,7.59,0,0,1,1.07-.08H48.88A35.34,35.34,0,0,1,84.22,48.85h0A35.35,35.35,0,0,1,48.88,84.2H20.39a6.85,6.85,0,0,1-6.85-6.86V70.69h0A24.38,24.38,0,1,0,0,48.85c0,.49,0,1,0,1.46v3.18H0V76.94A20.76,20.76,0,0,0,20.8,97.71H48.88A48.86,48.86,0,0,0,97.73,48.85h0A48.85,48.85,0,0,0,48.88,0ZM24.38,38A10.82,10.82,0,1,1,13.57,48.85,10.81,10.81,0,0,1,24.38,38Z"/><path class="cls-1" d="M12.62,131.74q0,7.59-7.54,7.59H.57V124.41H5.08c2.52,0,4.41.6,5.66,1.82S12.62,129.28,12.62,131.74Zm-1.15,0a10.51,10.51,0,0,0-.3-2.63,4.49,4.49,0,0,0-1-2,4.61,4.61,0,0,0-2-1.23,9.5,9.5,0,0,0-3.12-.43H1.66v12.76H5.05a9.49,9.49,0,0,0,3.11-.44,4.6,4.6,0,0,0,2-1.28,4.78,4.78,0,0,0,1-2A11.41,11.41,0,0,0,11.47,131.74Z"/><path class="cls-1" d="M22.2,124.12a7.23,7.23,0,0,1,2.82.54,6.42,6.42,0,0,1,2.23,1.56,7,7,0,0,1,1.46,2.43,9,9,0,0,1,.53,3.16,9.17,9.17,0,0,1-.52,3.17,7.52,7.52,0,0,1-1.45,2.46A6.55,6.55,0,0,1,25,139a7.39,7.39,0,0,1-5.69,0,6.33,6.33,0,0,1-2.23-1.59A7.21,7.21,0,0,1,15.67,135a10,10,0,0,1,0-6.36,7.11,7.11,0,0,1,1.47-2.42,6.58,6.58,0,0,1,2.23-1.55A7.25,7.25,0,0,1,22.2,124.12Zm0,14.39a6.27,6.27,0,0,0,2.36-.44,5.15,5.15,0,0,0,1.88-1.31,6,6,0,0,0,1.23-2.1,8.67,8.67,0,0,0,.43-2.85,8.51,8.51,0,0,0-.44-2.84,6.11,6.11,0,0,0-1.23-2.06,5.15,5.15,0,0,0-1.85-1.27,6.2,6.2,0,0,0-2.34-.43,6.3,6.3,0,0,0-2.38.44A5.17,5.17,0,0,0,18,126.92,5.76,5.76,0,0,0,16.74,129a8.18,8.18,0,0,0-.45,2.82,8.66,8.66,0,0,0,.44,2.85,6,6,0,0,0,1.22,2.1,5.11,5.11,0,0,0,1.87,1.31A6.29,6.29,0,0,0,22.19,138.51Z"/><path class="cls-1" d="M32.39,124.39h5.43a11.9,11.9,0,0,1,2.1.18,5,5,0,0,1,1.78.65,3.57,3.57,0,0,1,1.23,1.27,4.18,4.18,0,0,1,.45,2A4.09,4.09,0,0,1,42,131.88,6.23,6.23,0,0,1,38,133H33.48v6.3H32.39Zm1.09,7.54H38a7.86,7.86,0,0,0,2-.21,3.56,3.56,0,0,0,1.31-.64A2.54,2.54,0,0,0,42,130a4.18,4.18,0,0,0,.23-1.44,3.28,3.28,0,0,0-.35-1.61A2.43,2.43,0,0,0,41,126a3.69,3.69,0,0,0-1.37-.45,12.31,12.31,0,0,0-1.64-.11H33.48Z"/><path class="cls-1" d="M52.85,124.12a7.23,7.23,0,0,1,2.82.54,6.42,6.42,0,0,1,2.23,1.56,7,7,0,0,1,1.46,2.43,9,9,0,0,1,.53,3.16,9.41,9.41,0,0,1-.52,3.17,7.52,7.52,0,0,1-1.45,2.46A6.55,6.55,0,0,1,55.69,139,7.39,7.39,0,0,1,50,139a6.24,6.24,0,0,1-2.23-1.59A7.21,7.21,0,0,1,46.32,135a10,10,0,0,1,0-6.36,7.11,7.11,0,0,1,1.47-2.42A6.58,6.58,0,0,1,50,124.66,7.25,7.25,0,0,1,52.85,124.12Zm0,14.39a6.27,6.27,0,0,0,2.36-.44,5.24,5.24,0,0,0,1.88-1.31,6.2,6.2,0,0,0,1.23-2.1,8.67,8.67,0,0,0,.43-2.85A8.51,8.51,0,0,0,58.3,129a6.11,6.11,0,0,0-1.23-2.06,5.15,5.15,0,0,0-1.85-1.27,6.2,6.2,0,0,0-2.34-.43,6.3,6.3,0,0,0-2.38.44,5.17,5.17,0,0,0-1.88,1.27A5.76,5.76,0,0,0,47.39,129a8.18,8.18,0,0,0-.45,2.82,8.66,8.66,0,0,0,.44,2.85,6,6,0,0,0,1.22,2.1,5.11,5.11,0,0,0,1.87,1.31A6.29,6.29,0,0,0,52.84,138.51Z"/><path class="cls-1" d="M73.31,125.48H68.08v13.85H67V125.48H61.82v-1.09H73.31Z"/><path class="cls-1" d="M78.37,139.33h-2v-2h2Z"/><path class="cls-1" d="M92.35,125.48H83.77v5.61h7.46v1.09H83.77v7.15H82.68V124.39h9.67Z"/><path class="cls-1" d="M97.17,139.33h-1.1V124.39h1.1Z"/></g></svg>