<svg xmlns="http://www.w3.org/2000/svg" viewBox="0 0 500 500">
	<defs>
		<style>
			.cls-1{fill:#fff;}
		</style>
	</defs>
	<g id="Livello_3" data-name="Livello 3">
		<path class="cls-1" d="M136.69,26.42A125.38,125.38,0,0,0,44.57,67C-5.64,121-5.58,206.92,44.57,261L235.81,467.42h0a19.17,19.17,0,0,0,28.18,0q95.75-103.07,191.43-206.21c50.21-54,50.21-140,0-194s-133.83-54-184,0L250,90,228.6,67c-25.11-27-58.44-40.56-91.92-40.56Zm0,37.37c22.93,0,45.82,9.87,63.94,29.37L236,131.33h0a19.18,19.18,0,0,0,28.17,0l35.17-38c36.24-39,91.66-39,127.89,0s36.24,102.87,0,141.87Q338.55,330.69,250,426.06L72.73,235C36.52,196,36.3,132.16,72.53,93.16c18.12-19.51,41.22-29.38,64.15-29.38Z" />
	</g>
</svg>
