<svg xmlns="http://www.w3.org/2000/svg" xmlns:xlink="http://www.w3.org/1999/xlink" viewBox="0 0 500 500"><defs><style>.cls-1{fill:url(#Sfumatura_senza_nome_396);}.cls-2{fill:url(#Sfumatura_senza_nome_408);}.cls-3{opacity:0.32;fill:url(#Sfumatura_senza_nome_336);}</style><linearGradient id="Sfumatura_senza_nome_396" x1="-1412.57" y1="1671" x2="-1014.88" y2="1465.43" gradientTransform="matrix(0, 1.01, -1, 0, 1821.22, 1474.8)" gradientUnits="userSpaceOnUse"><stop offset="0" stop-color="#fb8b54"/><stop offset="1" stop-color="#ff9050"/></linearGradient><linearGradient id="Sfumatura_senza_nome_408" x1="-1447.88" y1="1392.98" x2="-1074.27" y2="1671.44" gradientTransform="matrix(0.89, 0.47, -0.47, 0.89, 2067.56, -564.71)" gradientUnits="userSpaceOnUse"><stop offset="0" stop-color="#ff8f50"/><stop offset="1" stop-color="#9d5422"/></linearGradient><radialGradient id="Sfumatura_senza_nome_336" cx="-1232.3" cy="1540.34" r="201.11" gradientTransform="matrix(0.89, 0.47, -0.47, 0.89, 2067.56, -564.71)" gradientUnits="userSpaceOnUse"><stop offset="0" stop-color="#e0b636"/><stop offset="0.34" stop-color="#e8c42d"/><stop offset="0.99" stop-color="#ffe716"/><stop offset="1" stop-color="#ffe816"/></radialGradient></defs><g id="oggetti"><ellipse class="cls-1" cx="250.42" cy="250.44" rx="224.17" ry="225.76" transform="translate(-88.1 354.53) rotate(-62.09)"/><path class="cls-2" d="M386.55,401.49c-10.47-5.6-9.23-6.95-17.09-14s6.6-13.39,22.41-31.81,9.39-5,20.79-26.51-1.14-12.62-22.06-21.57-11.2-.29-26.17,9.46-28.64-6.69-35.7-18.91-4.69-31.46,3.49-46.91,14.8-9.13,41.65-16.82,59,12.18,74.54,23.22c6.2,4.41,15.56-.18,24.57-7.29a9,9,0,0,0,3.39-7.38A227.12,227.12,0,0,0,420,101.66a9.13,9.13,0,0,0-14.49.92c-1.7,2.58-3.82,5.85-6.48,10.26-12.31,20.44-11.2,2.45-38.4,3.08s-10.12,10.7-23.69,28.26-16.43,20.27-33.19,15.63-23.87-14.05-42.9-45.33,9-12.92,10.17-46-26.86-16.54-41.76-22.12c-3.34-1.25-4.47-5-4.2-10a9.1,9.1,0,0,0-10.42-9.53A226.15,226.15,0,0,0,106.76,74.28a9,9,0,0,0-3.25,8c.13,1.1.24,2.24.33,3.41,4.2,55.23-40.72,67.49,7.75,74.07s75.23,3.09,80.71,23.66,38.74,55.86-10,60.46-54.17-12.46-93.17-17.2c-37.21-4.52-50.37-.8-63.63,16.32a9,9,0,0,0-1.91,5.51,226,226,0,0,0,13.14,75.55,9.16,9.16,0,0,0,14,4.32c7.27-5.28,14.28-11.66,18.95-18.93,14-21.71,51.18-19.61,49.52-5s-14.5,9.31,1.39,29.71,21.54,32.58,36.42,19.26,24.84-28.43,38.72-2.06,3,13.12,20.8,28.05,23.32,4.69,28.71,15.2,22.15,14,26.1,13.82,16.44,36.86,14.84,51.92v.13a9.16,9.16,0,0,0,10.89,10.05A225.69,225.69,0,0,0,398.52,421c6.1-5.24,3-15.42-5.11-16C391.6,404.82,391.49,404.13,386.55,401.49Z"/><path class="cls-3" d="M370.68,112A225.82,225.82,0,0,1,475.19,228.3,226,226,0,0,0,355.81,51.46C245.63-6.89,109.33,34.5,51.39,143.9,19.49,204.14,18,272.43,41.48,331.39A222,222,0,0,1,66.26,204.47C124.2,95.06,260.49,53.67,370.68,112Z"/></g></svg>