<svg xmlns="http://www.w3.org/2000/svg" xmlns:xlink="http://www.w3.org/1999/xlink" viewBox="0 0 500 500"><defs><style>.cls-1{fill:url(#Sfumatura_senza_nome_352);}.cls-2{fill:url(#Sfumatura_senza_nome_362);}.cls-3{fill:url(#Sfumatura_senza_nome_360);}.cls-4{fill:url(#Sfumatura_senza_nome_360-2);}.cls-5{fill:#f6ff5c;opacity:0.38;}</style><linearGradient id="Sfumatura_senza_nome_352" x1="-690.66" y1="781.17" x2="-242.45" y2="781.17" gradientTransform="translate(634.46 -575.55) rotate(-5.85)" gradientUnits="userSpaceOnUse"><stop offset="0" stop-color="#2f619a"/><stop offset="0.99" stop-color="#268cb9"/></linearGradient><linearGradient id="Sfumatura_senza_nome_362" x1="-712.38" y1="597.85" x2="-367.28" y2="872" gradientTransform="translate(634.46 -575.55) rotate(-5.85)" gradientUnits="userSpaceOnUse"><stop offset="0" stop-color="#b2ca69"/><stop offset="0.99" stop-color="#3a690c"/></linearGradient><linearGradient id="Sfumatura_senza_nome_360" x1="-656.1" y1="525.41" x2="-309.64" y2="800.64" gradientTransform="translate(634.46 -575.55) rotate(-5.85)" gradientUnits="userSpaceOnUse"><stop offset="0" stop-color="#b2ca69"/><stop offset="0.99" stop-color="#3a6a4f"/></linearGradient><linearGradient id="Sfumatura_senza_nome_360-2" x1="-788.68" y1="692.31" x2="-442.22" y2="967.54" xlink:href="#Sfumatura_senza_nome_360"/></defs><g id="oggetti"><ellipse class="cls-1" cx="250" cy="249.13" rx="224.11" ry="224.11"/><path class="cls-2" d="M195.76,29.7a23.49,23.49,0,0,1,25.17,12.88c15.48,31.8,48.26,102.71,30.14,97.58-23.31-6.59-52.83,16.53-53,42.2S166.68,268.07,162.23,272s-37.11,3.11-48.88,16.79S83.61,343.46,70.59,345,20.17,312.89,42.35,292.6s44.53-25.36,52.41-56.67-13.12-33.32-14.94-51.15,1.25-21.62-1.57-49.06L76.38,117.5a23.52,23.52,0,0,1,5.16-17.24C96,82.43,135.9,40.26,195.76,29.7Z"/><path class="cls-3" d="M444.45,143.48a23.54,23.54,0,0,0-37.72-5.81c-12.35,12.46-28,25.07-41,25.62-26,1.08-25.29,67.55-18.26,75.85l.1.12a23.86,23.86,0,0,0,15.49,8.18c8.92,1,21.84,5.79,23.74,24.4,3,28.81,9.29,36.48,3.57,55.09s-12,24.8-2,41.11c1.58,2.57,3.2,5.28,4.82,8a23.52,23.52,0,0,0,39.39,1.66c17.15-24.14,38.05-60.28,38.91-94C472.77,232.8,481,215.28,444.45,143.48Z"/><path class="cls-4" d="M192.4,466.32a23.52,23.52,0,0,1-16.2-28.54c6.76-25.75,16.15-68.58,9.9-88.52-9.27-29.55-8-51.17,6.38-52.64s69.25,6.07,72.1,20.33,13.79,26.32,27.8,34.58,20.56,18,29,33.07,18.19,11.67,25.89,27.68-2.51,39.51-3.72,40.54S279,491.58,192.4,466.32Z"/><path class="cls-5" d="M267,63.69a223.23,223.23,0,0,1,155.34,42.19A223.86,223.86,0,0,0,227.15,26.19C104,38.81,14.44,148.86,27.06,272a223.54,223.54,0,0,0,90.46,157.9A223,223,0,0,1,67,309.48C54.33,186.36,143.91,76.31,267,63.69Z"/></g></svg>