<svg xmlns="http://www.w3.org/2000/svg" xmlns:xlink="http://www.w3.org/1999/xlink" viewBox="0 0 500 500"><defs><style>.cls-1{fill:url(#Sfumatura_senza_nome_160);}.cls-2{fill:url(#Sfumatura_senza_nome_193);}.cls-3{fill:url(#Sfumatura_senza_nome_193-2);}.cls-4{fill:url(#Sfumatura_senza_nome_193-3);}.cls-5{fill:#deff41;opacity:0.31;}</style><linearGradient id="Sfumatura_senza_nome_160" x1="35.93" y1="1452.49" x2="-560.9" y2="1055.86" gradientTransform="matrix(0.83, 0.56, -0.56, 0.83, 1182.4, -614.99)" gradientUnits="userSpaceOnUse"><stop offset="0" stop-color="#de3541"/><stop offset="0.5" stop-color="#f06e5a"/><stop offset="0.99" stop-color="#ffd45f"/></linearGradient><linearGradient id="Sfumatura_senza_nome_193" x1="-572.32" y1="1257.69" x2="-33.77" y2="1156.19" gradientTransform="matrix(0.83, 0.56, -0.56, 0.83, 1182.4, -614.99)" gradientUnits="userSpaceOnUse"><stop offset="0.01" stop-color="#dd353f"/><stop offset="1" stop-color="#ffd45f"/></linearGradient><linearGradient id="Sfumatura_senza_nome_193-2" x1="-552.87" y1="1360.9" x2="-14.31" y2="1259.4" xlink:href="#Sfumatura_senza_nome_193"/><linearGradient id="Sfumatura_senza_nome_193-3" x1="-589.9" y1="1164.43" x2="-51.34" y2="1062.92" xlink:href="#Sfumatura_senza_nome_193"/></defs><g id="oggetti"><circle class="cls-1" cx="250.1" cy="250.69" r="224.31"/><path class="cls-2" d="M360.13,176.32s24.51,30.45-15.67,34.57-39.17,22.86-34.75,39.47,64.54,49.68,60.77,66.78-31.34,24,.87,49.84,64.21,10,64.21,10,40.16-55.14,38.35-110.43S331,115.14,360.13,176.32Z"/><path class="cls-3" d="M204.22,180.27a39,39,0,0,0-14.91-5.47c-7.82-1.07-17.93,0-25.45,9.52-14.16,17.9,1,65-39.68,58.27L92.4,237.32a40.35,40.35,0,0,0-19.65,1.62C55,245,22.19,260.93,28.26,294.28c8.24,45.3,43.82,97.07,43.82,97.07s44.07,59.51,77.33,25.11,20.4-91.74,52.4-94.85S239.72,332,258.64,301.8s4.25-52,22.07-75.29S270.64,157,250.32,178.43C233.88,195.76,212,185,204.22,180.27Z"/><path class="cls-4" d="M185,63.73a18.13,18.13,0,0,1,9.09,21.16c-1.84,6-6.52,10.26-17.48,5.57C152.25,80,133.87,81.91,121,100.37s8,63.5,22.21,59.71,31.86-24.88,56.63-16,29.49,33.69,57.74,3.75,15.73-49.1,44.57-65.46,20.64-4.84,42.09-8.63,25.86-11.85,25.86-11.85S294.15,10.16,213.3,29.22C162.36,41.23,174.27,58.19,185,63.73Z"/><path class="cls-5" d="M319.73,77.61A223.84,223.84,0,0,1,468.07,197.48,224.31,224.31,0,0,0,303.39,32.13C183.07,2.62,61.61,76.23,32.09,196.54A223.42,223.42,0,0,0,48.17,348a223.31,223.31,0,0,1,.26-106C78,121.71,199.41,48.1,319.73,77.61Z"/></g></svg>