<svg xmlns="http://www.w3.org/2000/svg" viewBox="0 0 250 250"><defs><style>.cls-1{fill:#fff;}</style></defs><g id="TESTI"><path class="cls-1" d="M18.75,163.94,45,125.76l6.59,4.53L25.34,168.47Z"/><path class="cls-1" d="M9.71,177.07l4.38-6.37,6.6,4.53-4.38,6.38Z"/><path class="cls-1" d="M145.68,186.14l-37.39-54.38V118.33l9.15-12.2A14.25,14.25,0,0,0,99.67,84.84L88.29,90.53V81h4a20,20,0,0,0,20-20V53a4,4,0,0,0-4-4h-8a19.82,19.82,0,0,0-12,4V41h4a20,20,0,0,0,20-20V13a4,4,0,0,0-4-4h-8a19.82,19.82,0,0,0-12,4V5h-8v8a19.85,19.85,0,0,0-12-4h-8a4,4,0,0,0-4,4v8a20,20,0,0,0,20,20h4V53a19.85,19.85,0,0,0-12-4h-8a4,4,0,0,0-4,4v8a20,20,0,0,0,20,20h4v9.53L68.91,84.84a14.25,14.25,0,0,0-17.77,21.29l9.15,12.2v13.43L22.9,186.14a37.58,37.58,0,0,0,31,58.86h60.86a37.58,37.58,0,0,0,31-58.86ZM100.29,57h4v4a12,12,0,0,1-12,12h-4V69a12,12,0,0,1,12-12Zm0-40h4v4a12,12,0,0,1-12,12h-4V29a12,12,0,0,1,12-12Zm-36,4V17h4a12,12,0,0,1,12,12v4h-4a12,12,0,0,1-12-12Zm0,40V57h4a12,12,0,0,1,12,12v4h-4a12,12,0,0,1-12-12Zm-8,36.58a6.24,6.24,0,0,1,9-5.59l17.17,8.58h0a4,4,0,0,0,3.58,0L103.24,92h0a6.25,6.25,0,0,1,9.05,5.59,6.33,6.33,0,0,1-1.25,3.75L102.29,113h-36l-8.75-11.67a6.26,6.26,0,0,1-1.25-3.75Zm44,23.42v8h-32v-8Zm14.42,116H53.86a29.58,29.58,0,0,1-24.37-46.33L66.39,137h35.79l36.9,53.67h0A29.58,29.58,0,0,1,114.71,237Z"/><path class="cls-1" d="M233.68,186.14l-37.39-54.38V118.33l9.15-12.2a14.25,14.25,0,0,0-17.77-21.29l-11.38,5.69V81h4a20,20,0,0,0,20-20V53a4,4,0,0,0-4-4h-8a19.82,19.82,0,0,0-12,4V45h-8v8a19.85,19.85,0,0,0-12-4h-8a4,4,0,0,0-4,4v8a20,20,0,0,0,20,20h4v9.53l-11.38-5.69a14.25,14.25,0,0,0-17.77,21.29l9.15,12.2v13.43l-15.8,23,6.59,4.54L154.39,137h35.79l36.9,53.67h0A29.57,29.57,0,0,1,202.71,237H144.29v8h58.42a37.58,37.58,0,0,0,31-58.86ZM188.29,57h4v4a12,12,0,0,1-12,12h-4V69a12,12,0,0,1,12-12Zm-36,4V57h4a12,12,0,0,1,12,12v4h-4a12,12,0,0,1-12-12Zm-8,36.58a6.24,6.24,0,0,1,9-5.59l17.17,8.58h0a4,4,0,0,0,3.58,0L191.24,92h0a6.25,6.25,0,0,1,9,5.59,6.33,6.33,0,0,1-1.25,3.75L190.29,113h-36l-8.75-11.67a6.26,6.26,0,0,1-1.25-3.75Zm44,31.42h-32v-8h32Z"/><path class="cls-1" d="M88.29,173.52V169h-8v4.53a11.41,11.41,0,0,0-1.69,21.1l7.8,3.9A3.41,3.41,0,0,1,84.87,205H83.7a3.41,3.41,0,0,1-3.41-3.41V201h-8v.59a11.44,11.44,0,0,0,8,10.89V217h8v-4.52A11.42,11.42,0,0,0,90,191.37l-7.8-3.9A3.42,3.42,0,0,1,83.7,181h1.17a3.42,3.42,0,0,1,3.42,3.42V185h8v-.58a11.42,11.42,0,0,0-8-10.89Z"/><path class="cls-1" d="M56.29,189h8v8h-8Z"/><path class="cls-1" d="M104.29,189h8v8h-8Z"/><path class="cls-1" d="M160.29,201v.58a11.42,11.42,0,0,0,8,10.89V217h8v-4.53a11.42,11.42,0,0,0,1.69-21.1l-7.8-3.9A3.41,3.41,0,0,1,171.7,181h1.17a3.42,3.42,0,0,1,3.42,3.41V185h8v-.59a11.44,11.44,0,0,0-8-10.89V169h-8v4.52a11.41,11.41,0,0,0-1.69,21.1l7.8,3.9a3.42,3.42,0,0,1-1.53,6.48H171.7a3.42,3.42,0,0,1-3.41-3.42V201Z"/><path class="cls-1" d="M192.29,189h8v8h-8Z"/></g></svg>