<svg xmlns="http://www.w3.org/2000/svg" viewBox="0 0 250 250"><defs><style>.cls-1{fill:#fff;}</style></defs><g id="TESTI"><path class="cls-1" d="M239.37,97.63c0-.09,0-.19,0-.29L214.9,27.08a11.36,11.36,0,1,0-15.09-10.85L149.64,28.4a23.24,23.24,0,0,0-44.84,8.66c0,.72,0,1.43.11,2.14L48.74,52.81a11.35,11.35,0,1,0-14,15.55L10.65,138.72a3.07,3.07,0,0,0-.06.68,2.39,2.39,0,0,0-.09.45,28.15,28.15,0,1,0,56.3-.33,3.24,3.24,0,0,0-.12-.62c0-.1,0-.2,0-.3L42.21,68.35a11.35,11.35,0,0,0,7.58-10l56.33-13.65a23.28,23.28,0,0,0,9.16,11.74l.3,144.3-19,0a11.77,11.77,0,0,0-11.73,11.77l0,7.53-15.16,0A11.76,11.76,0,0,0,58,231.86l0,10.34a2.8,2.8,0,0,0,2.81,2.8l139.33-.29a2.82,2.82,0,0,0,2.8-2.82l0-10.33a11.76,11.76,0,0,0-11.78-11.72l-15.16,0v-7.53a11.77,11.77,0,0,0-11.78-11.72l-22.94,0-.31-144.31a23,23,0,0,0,10.15-22.53l50.09-12.14a11.36,11.36,0,0,0,6.32,5.41L183.35,97.46a2.18,2.18,0,0,0-.06.67,2.49,2.49,0,0,0-.09.46,28.15,28.15,0,1,0,56.3-.33,2.53,2.53,0,0,0-.13-.62ZM38.69,162.33a22.58,22.58,0,0,1-22.41-19.89l44.75-.1a22.56,22.56,0,0,1-22.34,20ZM17.24,136.82l21.27-62L60,136.73Zm21.24-73.4a5.77,5.77,0,1,1,5.75-5.78A5.77,5.77,0,0,1,38.48,63.42Zm158.8,168.14,0,7.53-133.71.28v-7.52a6.12,6.12,0,0,1,6.11-6.14l121.45-.26a6.14,6.14,0,0,1,6.14,6.11Zm-26.95-19.21,0,7.53-79.9.17v-7.53a6.13,6.13,0,0,1,6.11-6.14l67.64-.14a6.13,6.13,0,0,1,6.14,6.11Zm-34.72-11.7-14.42,0-.3-141.55a23.51,23.51,0,0,0,7.21,1.14,23.23,23.23,0,0,0,7.21-1.18Zm-7.52-146A17.64,17.64,0,1,1,145.7,37,17.66,17.66,0,0,1,128.09,54.65ZM205.41,16.4a5.77,5.77,0,1,1,5.77,5.75A5.77,5.77,0,0,1,205.41,16.4Zm5.8,17.16,21.53,61.91-42.8.09Zm.18,87.5A22.57,22.57,0,0,1,189,101.17l44.75-.09a22.57,22.57,0,0,1-22.35,20Z"/></g></svg>