<svg xmlns="http://www.w3.org/2000/svg" viewBox="0 0 250 250"><defs><style>.cls-1{fill:#fff;}</style></defs><g id="TESTI"><path class="cls-1" d="M84.64,5a5.43,5.43,0,0,0-4.51,3.5L70.47,33.34h0L45.62,43.27a5.47,5.47,0,0,0,0,10.14l24.89,9.66h0l9.69,24.66a5.64,5.64,0,0,0,3,3.21,5.47,5.47,0,0,0,7.25-3L100.09,63h0l24.77-9.76a5.47,5.47,0,0,0,0-10.14L100,33.28h0L90.27,8.51A5.45,5.45,0,0,0,84.64,5Zm.55,20.45h0L90.76,39.6a5.44,5.44,0,0,0,3.16,3.06l14,5.5h0l-14,5.56a5.49,5.49,0,0,0-3.15,3.08L85.29,71h0L79.8,56.83a5.44,5.44,0,0,0-3.07-3.06l-14.14-5.5h0l14.12-5.57a5.41,5.41,0,0,0,3.06-3.07ZM151.88,61.7a5.49,5.49,0,0,0-3.83,2.65l-8.23,14.16h0l-14,8.29a5.47,5.47,0,0,0,0,9.46l14.08,8.32h0l8.29,14.12a5.43,5.43,0,0,0,9.45,0l8.24-14.24h0l14-8.3a5.46,5.46,0,0,0,0-9.45L165.8,78.46h0l-8.29-14.12a5.45,5.45,0,0,0-5.12-2.63,4.34,4.34,0,0,0-.51,0Zm1,16.19,4.27,7.31a5.42,5.42,0,0,0,2,2l7.33,4.24h0l-7.31,4.45a5.43,5.43,0,0,0-2,1.88l-4.23,7.41h0l-4.36-7.4a5.49,5.49,0,0,0-2-1.87l-7.33-4.41h0l7.31-4.27a5.39,5.39,0,0,0,2-2l4.33-7.33Zm73.76,36.64a15.35,15.35,0,0,0-10.9,4.79l-.08-.08-.09.17c-.12.12-7.46,7.42-15.47,15.45s-16.51,16.52-19,19.29a5.48,5.48,0,0,0-1.42,3.95,3.1,3.1,0,0,0,3.69,2.89,5.45,5.45,0,0,0,3.77-1.82c1.73-1.89,10.56-10.78,18.62-18.87s15.55-15.62,15.55-15.62c3.17-2.4,8.28-4.06,11.93-.8,4.28,3.83,2.9,10.1.17,13.62,0,0,0,.07,0,.09-.24.29-32.76,39.48-53.78,64.17-5.81,6.82-13.79,13.57-25.1,13.6l-64.65.13c-7,0-14.26,1.3-19.92,6.86L54.51,237.46c-1.06,1-2.34,2.83-2.36,4.29-.35,2,1.67,3.26,3.13,3.25a5.47,5.47,0,0,0,3.89-1.66l15.38-15.11c3.11-3,6.4-3.68,12.26-3.69l64.65-.14c15.66,0,26.6-9.51,33.36-17.44,21.19-24.9,54-64.52,54-64.52l.17-.25a18.21,18.21,0,0,0,2.24-17.33,16.35,16.35,0,0,0-14.65-10.33ZM82.91,155.46c-11.57,0-23.48,1.68-33,9.53L10.17,197.62c-2.33,1.93-3.68,1.26-1.75,3.58a5.47,5.47,0,0,0,7.71.71l39.63-32.62c6.62-5.45,15.57-7,26.14-7l77.16-.16a3.4,3.4,0,0,1,3.42,3.48c-.1,4.83-1.28,12.6-2.6,15.05-2.78,4.25-5.86,3.81-6,3.79l-52,.1c-1.46,0-4.6-.07-4.59,3.32.12,1.43-.57,3.62,4.78,3.62l50-.26s9.24.54,12.79-6.06c3.44-6.38,5.11-17.73,1.89-26.36a3,3,0,0,0-2.59-1.92C151.54,155.75,82.91,155.46,82.91,155.46Z"/></g></svg>